<svg xmlns="http://www.w3.org/2000/svg" viewBox="0 0 145 44" role="img" aria-label="Spa Maroc Signature"><g fill="#D8BC78" transform="translate(0 4)"><path fill-rule="evenodd" d="M0 0H24V25H0ZM7.2 25V17.83A6.9 6.9 0 0 1 12 7.82A6.9 6.9 0 0 1 16.8 17.83V25Z"/><path d="M0 27h7.2v3.2H0ZM16.8 27H24v3.2h-7.2Z"/><path d="M0 31.9h7.2v2H0ZM16.8 31.9H24v2h-7.2Z"/><path d="M0 35h7.2v1H0ZM16.8 35H24v1h-7.2Z"/></g><path fill="#F5F1E8" d="M38.83 9.91Q37.93 9.91 37.36 9.44Q36.79 8.97 36.65 8.19L37.58 7.96Q37.67 8.5 38.01 8.78Q38.35 9.06 38.85 9.06Q39.13 9.06 39.35 8.96Q39.57 8.86 39.7 8.67Q39.83 8.48 39.83 8.24Q39.83 7.99 39.69 7.82Q39.55 7.65 39.29 7.52Q39.02 7.38 38.65 7.23Q38.13 7.04 37.77 6.81Q37.41 6.58 37.22 6.26Q37.03 5.95 37.03 5.51Q37.03 5.06 37.25 4.71Q37.47 4.36 37.88 4.17Q38.28 3.97 38.8 3.97Q39.37 3.97 39.8 4.22Q40.24 4.48 40.5 4.99L39.75 5.45Q39.57 5.14 39.33 4.97Q39.08 4.81 38.77 4.81Q38.55 4.81 38.37 4.89Q38.19 4.98 38.09 5.13Q37.98 5.29 37.98 5.5Q37.98 5.71 38.11 5.87Q38.23 6.03 38.49 6.16Q38.75 6.29 39.15 6.45Q39.66 6.64 40.02 6.87Q40.39 7.1 40.58 7.42Q40.77 7.73 40.77 8.18Q40.77 8.68 40.52 9.07Q40.28 9.46 39.84 9.68Q39.4 9.91 38.83 9.91ZM44.17 9.8L44.17 4.08L46 4.08Q46.95 4.08 47.44 4.49Q47.93 4.9 47.93 5.72Q47.93 6.54 47.44 6.98Q46.94 7.41 46 7.41L45.11 7.41L45.11 9.8ZM45.11 6.56L45.9 6.56Q46.41 6.56 46.69 6.37Q46.98 6.18 46.98 5.74Q46.98 5.31 46.71 5.12Q46.43 4.93 45.9 4.93L45.11 4.93ZM50.1 9.8L52.36 4.08L53.08 4.08L55.34 9.8L54.31 9.8L52.72 5.47L51.14 9.8ZM51.51 8.6L51.8 7.76L53.63 7.76L53.94 8.6ZM63.15 9.8L63.15 4.08L64.54 4.08L66.14 8.36L65.97 8.36L67.57 4.08L68.96 4.08L68.96 9.8L68.01 9.8L68.01 5.19L68.09 5.21L66.52 9.3L65.59 9.3L64.01 5.21L64.1 5.19L64.1 9.8ZM72.13 9.8L74.39 4.08L75.11 4.08L77.37 9.8L76.34 9.8L74.75 5.47L73.17 9.8ZM73.54 8.6L73.83 7.76L75.66 7.76L75.97 8.6ZM80.54 9.8L80.54 4.08L82.37 4.08Q83.05 4.08 83.48 4.29Q83.91 4.49 84.11 4.86Q84.31 5.22 84.31 5.72Q84.31 6.49 83.87 6.91Q83.43 7.33 82.62 7.4Q82.46 7.4 82.27 7.4Q82.08 7.4 81.93 7.4L81.5 7.4L81.5 9.8ZM83.68 9.8L82.23 7.29L83.2 7.18L84.78 9.8ZM81.5 6.56L82.27 6.56Q82.59 6.56 82.83 6.49Q83.07 6.41 83.21 6.23Q83.36 6.05 83.36 5.73Q83.36 5.41 83.21 5.24Q83.07 5.07 82.82 5Q82.58 4.93 82.27 4.93L81.5 4.93ZM90.35 9.91Q89.55 9.91 88.94 9.55Q88.33 9.18 87.99 8.5Q87.65 7.83 87.65 6.95Q87.65 6.05 87.99 5.38Q88.33 4.71 88.94 4.34Q89.55 3.97 90.35 3.97Q91.17 3.97 91.78 4.34Q92.39 4.71 92.73 5.38Q93.07 6.04 93.07 6.95Q93.07 7.84 92.73 8.51Q92.38 9.18 91.77 9.55Q91.16 9.91 90.35 9.91ZM90.35 9.01Q90.9 9.01 91.29 8.76Q91.69 8.5 91.9 8.04Q92.12 7.58 92.12 6.95Q92.12 6.31 91.9 5.84Q91.69 5.38 91.29 5.13Q90.9 4.87 90.35 4.87Q89.82 4.87 89.42 5.12Q89.03 5.37 88.81 5.84Q88.6 6.3 88.6 6.95Q88.6 7.59 88.81 8.05Q89.02 8.51 89.42 8.76Q89.82 9.01 90.35 9.01ZM98.98 9.91Q98.18 9.91 97.57 9.55Q96.96 9.18 96.62 8.5Q96.28 7.83 96.28 6.94Q96.28 6.04 96.62 5.38Q96.96 4.71 97.57 4.34Q98.18 3.97 98.98 3.97Q99.87 3.97 100.53 4.41Q101.18 4.86 101.47 5.64L100.58 5.96Q100.38 5.45 99.97 5.16Q99.56 4.87 98.98 4.87Q98.45 4.87 98.05 5.13Q97.66 5.38 97.44 5.84Q97.23 6.3 97.23 6.94Q97.23 7.58 97.44 8.04Q97.66 8.5 98.05 8.76Q98.45 9.01 98.98 9.01Q99.56 9.01 99.97 8.72Q100.38 8.43 100.58 7.92L101.47 8.24Q101.18 9.01 100.53 9.46Q99.87 9.91 98.98 9.91Z"/><path fill="#F5F1E8" d="M48.96 16.34Q48.38 15.42 47.36 14.83Q46.34 14.25 44.98 14.25Q43.65 14.25 42.74 14.68Q41.83 15.11 41.36 15.91Q40.89 16.72 40.89 17.82Q40.89 18.92 41.32 19.65Q41.76 20.38 42.48 20.89Q43.19 21.41 44.03 21.91Q44.87 22.41 45.73 23.03Q46.58 23.66 47.16 24.63Q47.74 25.61 47.74 27.21Q47.74 29.04 46.82 30.46Q45.89 31.88 44.21 32.67Q42.52 33.47 40.22 33.47Q38.97 33.47 37.79 33.26Q36.62 33.05 35.69 32.63L35.62 27.62L36 27.62L37.77 32.9L36.46 31.5Q37.35 32.16 38.22 32.55Q39.09 32.93 40.39 32.93Q41.99 32.93 43.19 32.43Q44.38 31.93 45.04 30.9Q45.69 29.87 45.69 28.27Q45.69 27.22 45.32 26.5Q44.95 25.79 44.36 25.29Q43.76 24.79 43.09 24.41Q42.41 24.03 41.82 23.66Q41.02 23.14 40.39 22.56Q39.77 21.97 39.41 21.14Q39.05 20.31 39.05 19.09Q39.05 17.49 39.83 16.26Q40.6 15.03 42.03 14.33Q43.45 13.63 45.37 13.63Q46.79 13.63 47.89 14Q48.99 14.37 50.07 15.08L48.64 14.65L50.28 13.17L50.5 13.17L49.73 19.42L49.45 19.42L48.39 15.07ZM50.42 31.96L54.67 20.56L54.93 20.97Q54.56 20.87 53.99 21.07Q53.41 21.27 52.56 21.91Q51.71 22.56 50.5 23.83L50.38 23.74Q51.54 22.09 52.5 21.07Q53.47 20.05 54.29 19.58Q55.12 19.11 55.83 19.11Q56.65 19.11 56.86 19.5Q57.07 19.9 56.8 20.62L52.55 32.01L52.23 31.53Q52.52 31.7 53.04 31.57Q53.56 31.45 54.45 30.79Q55.34 30.14 56.72 28.75L56.84 28.84Q55.68 30.47 54.7 31.5Q53.71 32.53 52.89 33Q52.08 33.47 51.4 33.47Q50.61 33.47 50.36 33.13Q50.12 32.78 50.42 31.96ZM55.67 15.1Q55.67 14.66 55.88 14.29Q56.09 13.92 56.47 13.7Q56.84 13.48 57.37 13.48Q58.15 13.48 58.58 13.96Q59.02 14.45 59.02 15.1Q59.02 15.54 58.82 15.94Q58.63 16.34 58.26 16.59Q57.9 16.84 57.37 16.84Q56.59 16.84 56.13 16.3Q55.67 15.76 55.67 15.1ZM70.01 21.05Q69.82 21.05 69.62 20.91Q69.43 20.77 69.15 20.55Q68.87 20.33 68.45 20.11Q68.03 19.88 67.39 19.71Q66.75 19.54 65.83 19.5L65.66 19.24Q67.33 19.36 68.31 19.3Q69.29 19.23 69.84 19.12Q70.4 19.01 70.78 19.01Q71.05 19.01 71.16 19.15Q71.27 19.28 71.27 19.54Q71.27 19.84 71.17 20.11Q71.06 20.38 70.88 20.59Q70.69 20.81 70.46 20.93Q70.24 21.05 70.01 21.05ZM61.93 27.83Q62.49 27.83 63.08 27.51Q63.67 27.19 64.23 26.6Q64.78 26 65.22 25.18Q65.66 24.36 65.92 23.33Q66.17 22.31 66.17 21.13Q66.17 20.27 65.94 19.92Q65.71 19.57 65.24 19.57Q64.69 19.57 64.09 19.88Q63.5 20.2 62.95 20.79Q62.39 21.39 61.95 22.21Q61.51 23.03 61.26 24.06Q61 25.09 61 26.26Q61 27.13 61.24 27.48Q61.47 27.83 61.93 27.83ZM65.12 19.12Q66.1 19.12 66.77 19.5Q67.44 19.89 67.79 20.59Q68.14 21.29 68.14 22.24Q68.14 23.48 67.64 24.57Q67.14 25.67 66.29 26.5Q65.43 27.33 64.34 27.8Q63.24 28.27 62.05 28.27Q61.08 28.27 60.41 27.92Q59.73 27.57 59.38 26.9Q59.03 26.23 59.03 25.29Q59.03 24.09 59.52 22.99Q60 21.89 60.86 21.01Q61.72 20.13 62.81 19.63Q63.9 19.12 65.12 19.12ZM61.46 39.48Q59.85 39.48 58.73 39.23Q57.61 38.98 56.92 38.53Q56.22 38.07 55.9 37.49Q55.59 36.9 55.59 36.21Q55.59 35.36 56.2 34.63Q56.82 33.9 58.22 33.38Q59.62 32.85 61.97 32.62L63.03 32.62L63.03 32.88Q61.51 32.88 60.42 33.13Q59.33 33.39 58.63 33.85Q57.92 34.31 57.59 34.9Q57.25 35.5 57.25 36.17Q57.25 37.02 57.67 37.66Q58.09 38.3 59 38.66Q59.91 39.02 61.39 39.02Q63.01 39.02 64.06 38.65Q65.11 38.28 65.61 37.68Q66.12 37.07 66.12 36.41Q66.12 35.95 65.89 35.54Q65.67 35.12 65.18 34.73Q64.69 34.35 63.88 34Q63.07 33.66 61.88 33.34Q60.38 32.93 59.58 32.52Q58.79 32.11 58.49 31.63Q58.19 31.15 58.19 30.57Q58.19 29.97 58.53 29.47Q58.87 28.96 59.52 28.55Q60.18 28.14 61.12 27.88L61.37 28.16Q60.47 28.34 60.07 28.72Q59.66 29.11 59.66 29.58Q59.66 29.81 59.76 29.99Q59.85 30.18 60.2 30.38Q60.56 30.58 61.28 30.85Q62 31.12 63.26 31.53Q64.94 32.05 65.92 32.67Q66.89 33.28 67.31 33.99Q67.72 34.7 67.72 35.54Q67.72 36.33 67.32 37.05Q66.91 37.76 66.12 38.31Q65.32 38.86 64.15 39.17Q62.99 39.48 61.46 39.48ZM70.21 24.98L70.06 24.91Q70.99 22.71 71.82 21.44Q72.65 20.17 73.48 19.64Q74.31 19.11 75.24 19.11Q75.58 19.11 75.84 19.14Q76.11 19.17 76.35 19.24Q76.59 19.31 76.85 19.42L75.05 25.13L74.85 25.13Q76.07 23.2 77.01 22.01Q77.94 20.82 78.71 20.19Q79.47 19.57 80.13 19.34Q80.79 19.11 81.44 19.11Q82.67 19.11 83.17 19.67Q83.68 20.23 83.68 21.02Q83.68 21.48 83.53 22.04Q83.38 22.59 82.87 23.83L79.54 32.01L79.24 31.62Q79.64 31.72 80.29 31.51Q80.94 31.3 81.87 30.64Q82.79 29.99 83.99 28.75L84.11 28.84Q82.94 30.5 81.92 31.52Q80.9 32.54 80.05 33Q79.2 33.47 78.51 33.47Q77.65 33.47 77.32 33.13Q77 32.78 77.34 31.96L80.67 23.86Q81.05 22.94 81.19 22.54Q81.33 22.14 81.33 21.9Q81.33 21.47 81.03 21.24Q80.72 21.01 80.08 21.01Q79.24 21.01 78.38 21.57Q77.53 22.13 76.77 22.97Q76.01 23.82 75.48 24.67Q74.95 25.53 74.74 26.13L72.37 33.2L70.17 33.2L74.08 21.56Q74.16 21.33 74.12 21.14Q74.07 20.96 73.84 20.96Q73.56 20.96 73.05 21.29Q72.54 21.62 71.83 22.49Q71.13 23.36 70.21 24.98ZM91.89 32.35L93.52 27.25L93.67 27.25Q92.43 29.12 91.46 30.33Q90.5 31.54 89.73 32.23Q88.96 32.92 88.33 33.19Q87.7 33.47 87.14 33.47Q86.44 33.47 85.87 33.18Q85.31 32.89 85 32.32Q84.68 31.76 84.68 30.92Q84.68 29.47 85.19 27.86Q85.71 26.25 86.59 24.71Q87.47 23.17 88.59 21.91Q89.7 20.66 90.92 19.91Q92.13 19.16 93.31 19.16Q94.08 19.16 94.75 19.61Q95.43 20.06 95.9 20.94L95.78 21.29Q95.43 20.58 94.97 20.31Q94.51 20.04 93.93 20.04Q93.06 20.04 92.12 20.71Q91.17 21.37 90.28 22.48Q89.38 23.59 88.66 24.93Q87.93 26.27 87.5 27.63Q87.07 28.99 87.07 30.15Q87.07 31 87.43 31.35Q87.8 31.7 88.38 31.7Q88.77 31.7 89.27 31.47Q89.77 31.24 90.4 30.72Q91.03 30.2 91.78 29.33Q92.54 28.46 93.43 27.18L95.66 20.74L96.13 19.38L98.33 19.38L94.08 32.03L93.79 31.61Q94.16 31.73 94.76 31.51Q95.37 31.28 96.2 30.61Q97.03 29.95 98.05 28.75L98.17 28.84Q96.52 31.45 95.2 32.46Q93.89 33.47 92.92 33.47Q92.25 33.47 91.98 33.17Q91.71 32.88 91.89 32.35ZM100.62 20.08L100.84 19.38L108.47 19.38L108.29 20.08ZM102.19 30.04Q102.1 30.35 102.04 30.56Q101.99 30.77 101.97 30.91Q101.95 31.04 101.95 31.15Q101.95 31.4 102.1 31.51Q102.26 31.62 102.55 31.62Q102.88 31.62 103.38 31.4Q103.89 31.19 104.65 30.54Q105.4 29.89 106.44 28.61L106.56 28.7Q105.54 30.26 104.71 31.2Q103.88 32.15 103.2 32.64Q102.53 33.13 101.98 33.3Q101.43 33.47 100.99 33.47Q100.39 33.47 99.99 33.12Q99.58 32.77 99.58 31.94Q99.58 31.67 99.66 31.2Q99.73 30.73 100.07 29.66L104.43 16.06L106.67 16.06ZM114.89 32.35L116.16 28.29L116.28 28.29Q115.34 29.77 114.58 30.77Q113.83 31.77 113.17 32.36Q112.52 32.96 111.91 33.21Q111.3 33.47 110.65 33.47Q109.43 33.47 108.93 32.89Q108.43 32.31 108.43 31.47Q108.43 31.08 108.52 30.64Q108.62 30.2 108.78 29.77L112.25 20.56L112.57 21.01Q112.33 20.86 111.75 21.02Q111.17 21.17 110.25 21.83Q109.33 22.49 108.08 23.9L107.95 23.8Q109.13 22.14 110.11 21.1Q111.1 20.06 111.94 19.59Q112.77 19.11 113.49 19.11Q114.29 19.11 114.58 19.45Q114.88 19.79 114.56 20.62L111.11 29.41Q110.95 29.81 110.87 30.14Q110.79 30.46 110.79 30.69Q110.79 31.18 111.11 31.37Q111.44 31.57 112.06 31.57Q112.65 31.57 113.33 31.13Q114 30.7 114.64 30.03Q115.28 29.37 115.76 28.64Q116.24 27.91 116.45 27.33L119.12 19.38L121.32 19.38L117.04 32.03L116.8 31.61Q117.16 31.73 117.77 31.51Q118.38 31.28 119.21 30.61Q120.04 29.95 121.05 28.75L121.17 28.84Q119.52 31.45 118.21 32.46Q116.89 33.47 115.92 33.47Q115.26 33.47 114.99 33.17Q114.73 32.88 114.89 32.35ZM126.44 21.56Q126.52 21.33 126.47 21.14Q126.42 20.96 126.19 20.96Q125.91 20.96 125.4 21.29Q124.9 21.62 124.19 22.49Q123.48 23.36 122.56 24.98L122.41 24.91Q123.34 22.71 124.17 21.44Q125 20.17 125.83 19.64Q126.67 19.11 127.6 19.11Q127.93 19.11 128.2 19.14Q128.46 19.17 128.7 19.24Q128.95 19.31 129.2 19.42L127.26 25.6L127.19 25.6Q128.53 22.91 129.52 21.52Q130.51 20.12 131.32 19.61Q132.12 19.11 132.88 19.11Q133.73 19.11 134.12 19.52Q134.52 19.93 134.52 20.56Q134.52 21.17 134.25 21.62Q133.98 22.08 133.55 22.33Q133.12 22.59 132.62 22.59Q132.08 22.59 131.88 22.36Q131.67 22.13 131.73 21.66Q131.8 21.19 131.72 21.04Q131.65 20.89 131.46 20.89Q131.05 20.89 130.55 21.25Q130.05 21.6 129.5 22.27Q128.95 22.94 128.39 23.86Q127.84 24.78 127.33 25.89Q126.81 27 126.38 28.27L124.72 33.2L122.52 33.2ZM140.69 19.65Q139.79 19.65 139 20.31Q138.21 20.98 137.57 22.06Q136.94 23.14 136.48 24.42Q136.02 25.69 135.78 26.92Q135.53 28.15 135.53 29.08Q135.53 30.51 136.05 31.12Q136.56 31.73 137.55 31.73Q138.3 31.73 139.06 31.38Q139.83 31.03 140.61 30.18Q141.39 29.33 142.19 27.84L142.34 27.87Q141.46 30.07 140.54 31.29Q139.63 32.51 138.68 32.99Q137.74 33.47 136.75 33.47Q135.64 33.47 134.86 33.06Q134.08 32.65 133.66 31.84Q133.25 31.04 133.25 29.88Q133.25 28.43 133.65 26.92Q134.05 25.41 134.78 24.01Q135.51 22.62 136.5 21.51Q137.49 20.4 138.68 19.75Q139.87 19.11 141.19 19.11Q142.14 19.11 142.72 19.41Q143.3 19.71 143.57 20.24Q143.85 20.77 143.85 21.41Q143.85 22 143.68 22.61Q143.51 23.22 143.11 23.82Q142.72 24.06 141.89 24.4Q141.07 24.75 139.99 25.13Q138.91 25.51 137.69 25.88Q136.48 26.25 135.29 26.54L135.37 26.13Q136.95 25.63 138.08 25.16Q139.21 24.69 139.96 24.23Q140.71 23.76 141.14 23.28Q141.57 22.79 141.75 22.27Q141.93 21.74 141.93 21.16Q141.93 20.7 141.79 20.35Q141.64 20.01 141.36 19.83Q141.08 19.65 140.69 19.65Z"/></svg>